Coordinates
version=1
nRows=19
nColumns=36
inDegrees=yes

Units are S.I. units (second, meters, Newtons, ...)
If the header above contains a line with 'inDegrees', this indicates whether rotational values are in degrees (yes) or radians (no).

endheader
time	pelvis_tilt	pelvis_list	pelvis_rotation	pelvis_tx	pelvis_ty	pelvis_tz	hip_flexion_r	hip_adduction_r	hip_rotation_r	knee_angle_r	knee_angle_r_beta	ankle_angle_r	subtalar_angle_r	mtp_angle_r	hip_flexion_l	hip_adduction_l	hip_rotation_l	knee_angle_l	knee_angle_l_beta	ankle_angle_l	subtalar_angle_l	mtp_angle_l	lumbar_extension	lumbar_bending	lumbar_rotation	arm_flex_r	arm_add_r	arm_rot_r	elbow_flex_r	pro_sup_r	arm_flex_l	arm_add_l	arm_rot_l	elbow_flex_l	pro_sup_l
      1.69000000	    -15.93240226	      3.49318214	     -7.56997239	     -0.27891258	      0.70055706	     -0.55611991	     70.95750057	      5.17022832	     11.49835768	     91.74775527	      1.60130041	     29.69498561	    -23.30881941	     -7.50002269	     73.29328100	     -8.00447420	      0.57584512	     92.49589391	      1.61435789	     26.85845152	    -13.73074828	     -7.50002269	    -21.49477167	     -3.87579520	     -0.88078716	     90.34501645	    -12.66642552	      7.36134387	    120.11422358	    105.90937428	    105.87815918	     -1.81269673	     20.02421586	    112.93824019	    109.61982552
      1.70000000	    -16.23546882	      3.45871879	     -7.60601810	     -0.27572304	      0.70931405	     -0.55507788	     70.01632113	      5.37241560	     11.61770508	     90.13478393	      1.57314875	     29.27997967	    -23.25218181	     -7.50002246	     72.48666694	     -8.22260511	      0.36225852	     91.05711800	      1.58924652	     26.16153374	    -13.33846953	     -7.50002246	    -20.18446926	     -3.91053029	     -0.97955153	     96.26644966	    -13.16464989	      8.08276001	    118.98384593	    105.78189265	    112.06482867	     -1.51085229	     20.42419006	    111.48121191	    109.39151464
      1.71000000	    -15.91581288	      3.41152484	     -7.59113808	     -0.27212312	      0.72045421	     -0.55449091	     68.15256213	      5.37063081	     11.75640954	     88.13072098	      1.53817125	     28.23794929	    -23.88385354	     -7.50002198	     70.72049836	     -8.20165963	      0.02949086	     89.18398238	      1.55655413	     25.10051832	    -13.51376290	     -7.50002198	    -19.54794933	     -3.86198137	     -1.09332262	    102.30867285	    -13.87330203	      9.83344594	    116.99792974	    105.66383532	    118.06072541	     -1.80205960	     21.66287255	    109.20982183	    109.21221208
      1.72000000	    -16.14245294	      3.47417221	     -7.46034867	     -0.26842234	      0.73097835	     -0.55432760	     66.95775738	      5.17120681	     11.84502333	     86.22103069	      1.50484087	     27.41076616	    -23.92591245	     -7.50002173	     69.60237081	     -8.01016301	     -0.29865340	     87.32532210	      1.52411439	     24.13139620	    -13.47922800	     -7.50002173	    -18.10890311	     -3.79049184	     -1.09434544	    107.93113163	    -14.26236470	     11.10532619	    114.42458051	    105.50158139	    123.40570108	     -1.85765568	     22.51117212	    106.48797453	    108.92559278
      1.73000000	    -15.89433416	      3.55330621	     -7.37015990	     -0.26435290	      0.74371340	     -0.55414920	     65.04848381	      4.90959786	     11.98629572	     83.90260359	      1.46437668	     25.28218912	    -25.35850515	     -7.50002078	     67.69895712	     -7.70633427	     -0.79531288	     84.99142764	      1.48338025	     21.99277200	    -15.17118472	     -7.50002078	    -17.13236349	     -3.70492646	     -1.24838060	    113.21375928	    -14.23850561	     12.95178441	    111.06389242	    105.67727914	    128.43815243	     -2.62974954	     24.18730355	    103.41995332	    108.73874396
      1.74000000	    -15.83980989	      3.66586976	     -7.29848789	     -0.26021189	      0.75665892	     -0.55373903	     63.31026298	      4.65135188	     12.19168951	     81.49701079	      1.42239117	     23.87179244	    -25.73019970	     -7.50002007	     65.97198096	     -7.45306024	     -1.27815611	     82.60201371	      1.44167711	     20.45493595	    -15.71722369	     -7.50002007	    -15.80647155	     -3.56390783	     -1.10411691	    118.25236931	    -14.01669404	     14.90991389	    106.99387027	    105.75126076	    132.87895607	     -3.36208890	     25.74222111	     99.89989836	    108.40561830
      1.75000000	    -15.90317851	      3.75488166	     -7.25783876	     -0.25592661	      0.77033387	     -0.55306073	     61.56383131	      4.45667932	     12.42824169	     78.75760077	      1.37457944	     21.76983128	    -26.57379641	     -7.50001905	     64.27469205	     -7.20123679	     -1.69019386	     79.98812100	      1.39605607	     18.27594367	    -16.76666182	     -7.50001905	    -14.19580303	     -3.42380607	     -0.66969513	    122.77135795	    -13.79032502	     17.03067609	    102.39012756	    105.76405460	    136.67761091	     -3.96343337	     27.50563147	     96.02830556	    108.05680391
      1.76000000	    -15.88435796	      3.77057884	     -7.25458400	     -0.25150358	      0.78505007	     -0.55227780	     59.63710214	      4.27125172	     12.59259237	     75.80020246	      1.32296311	     19.73052998	    -27.05606634	     -7.50001831	     62.38066360	     -7.01019172	     -2.05620185	     77.15610844	      1.34662813	     16.13481010	    -17.42746044	     -7.50001831	    -12.58210302	     -3.35261202	      0.05414009	    126.87873852	    -13.79257261	     19.31896669	     97.49522966	    105.49772300	    139.93549072	     -4.16743933	     29.49049290	     91.79962154	    107.69161658
      1.77000000	    -15.62352390	      3.80462843	     -7.29310730	     -0.24710479	      0.80080351	     -0.55166185	     57.45515018	      3.95219466	     12.74303730	     72.72936828	      1.26936694	     17.85695096	    -26.84949736	     -7.50001798	     60.17840709	     -6.76605728	     -2.38574579	     74.20163132	      1.29506278	     14.12589346	    -17.41004138	     -7.50001798	    -11.24286298	     -3.39582010	      0.87519853	    130.66930881	    -13.76655772	     21.58333746	     92.22567780	    105.13010951	    142.91983294	     -4.10813964	     31.50208277	     87.18255223	    107.25440069
      1.78000000	    -15.15128144	      3.83408671	     -7.40568873	     -0.24271089	      0.81773091	     -0.55089702	     55.02884539	      3.61237620	     12.78233471	     69.43166706	      1.21181120	     14.15886107	    -28.16803627	     -7.50001708	     57.65342796	     -6.54508032	     -2.79262376	     70.92514276	      1.23787726	     10.53529268	    -19.05842770	     -7.50001708	    -10.23199599	     -3.45946909	      1.77058007	    134.31934149	    -13.72755804	     24.37841900	     86.88939837	    104.63455677	    145.78074895	     -4.07646256	     33.85304183	     82.68505077	    106.81202266
      1.79000000	    -14.51109297	      3.94391444	     -7.61776216	     -0.23826950	      0.83583685	     -0.54982941	     52.37936130	      3.19017266	     12.86266437	     65.93709356	      1.15081938	     10.91357859	    -28.51562135	     -7.50001610	     54.79852461	     -6.32506779	     -3.23066565	     67.39977735	      1.17634803	      7.41747790	    -19.52696200	     -7.50001610	     -9.53188905	     -3.62503842	      2.55031038	    137.73844761	    -13.34028883	     27.06348047	     81.46782193	    104.17112467	    148.61779839	     -4.13729157	     36.38893888	     78.23970906	    106.54486293
      1.80000000	    -13.64841722	      4.18914128	     -7.89590461	     -0.23353477	      0.85560739	     -0.54869611	     49.38156279	      2.54398580	     12.97564792	     62.10484180	      1.08393397	      7.99827716	    -28.05937911	     -7.50001569	     51.44603119	     -5.96785507	     -3.78267182	     63.38791555	      1.10632783	      4.50108873	    -19.18745325	     -7.50001569	     -9.05341303	     -3.95306599	      3.29309226	    140.67953465	    -12.87653867	     29.80618013	     76.23190453	    103.89983369	    151.03205983	     -4.27292695	     39.11478949	     74.08012094	    106.38112284
      1.81000000	    -12.54989862	      4.55502668	     -8.20431395	     -0.22836983	      0.87707897	     -0.54757676	     46.00334743	      1.58770276	     13.00223054	     57.85146515	      1.00969854	      4.62539370	    -27.05193254	     -7.50001545	     47.57949171	     -5.47343728	     -4.55790292	     58.79254138	      1.02612342	      1.02966540	    -18.35176026	     -7.50001545	     -8.65184991	     -4.45550392	      4.02484063	    142.70537581	    -12.35731886	     32.13704776	     71.52492048	    103.69139501	    152.48874421	     -4.17542505	     41.41256022	     70.35499900	    106.24196554
      1.82000000	    -11.41492946	      4.90036732	     -8.47722779	     -0.22325391	      0.89946206	     -0.54679571	     42.43644617	      0.54979325	     12.93929599	     53.07471005	      0.92632844	     -1.16967187	    -28.30125312	     -7.50001569	     43.51031772	     -4.74880665	     -5.25422869	     53.57422994	      0.93504671	     -4.73391820	    -20.29821662	     -7.50001569	     -8.36898759	     -4.93618971	      4.78611913	    144.83597007	    -12.35311781	     35.67947649	     66.99363059	    105.17256517	    153.90107289	     -4.18232387	     44.39732972	     66.57627666	    108.04328010
      1.83000000	    -10.15511057	      5.25488348	     -8.70599773	     -0.21803679	      0.92274535	     -0.54596035	     38.56776945	     -0.71081985	     12.59854710	     47.87037649	      0.83549568	     -6.00139866	    -27.51975332	     -7.50001548	     39.18855363	     -4.07944958	     -6.15250427	     47.99976353	      0.83775391	    -10.00544397	    -20.07790359	     -7.50001548	     -8.11229235	     -5.48612487	      5.54033822	    146.16848850	    -12.35402416	     38.64776477	     63.06591820	    105.63053730	    154.39604966	     -3.89488901	     46.38610276	     63.33099357	    108.83243434
      1.84000000	     -8.99097298	      5.61606426	     -8.82987814	     -0.21298571	      0.94634899	     -0.54514370	     34.65451093	     -2.05814860	     12.08382314	     42.25459257	      0.73748176	    -11.30838761	    -26.27878899	     -7.50001542	     34.88607303	     -3.33546642	     -6.92650256	     41.99982229	      0.73303518	    -15.75909091	    -19.09181438	     -7.50001542	     -7.74071268	     -6.03362012	      6.11773199	    147.00188912	    -12.47638135	     41.65746484	     59.65576380	    106.01003416	    154.46361626	     -3.59433414	     48.04629008	     60.39578680	    109.71352122
      1.85000000	     -7.95972288	      5.97727167	     -8.85489795	     -0.20817986	      0.97015824	     -0.54434518	     30.74227981	     -3.46722604	     11.35217772	     36.18837489	      0.63160629	    -17.26457229	    -24.66347052	     -7.50001515	     30.66915822	     -2.54047092	     -7.52957459	     35.53304964	      0.62016871	    -22.41304085	    -17.67888076	     -7.50001515	     -7.26602204	     -6.56302086	      6.61019787	    147.49732778	    -12.76197517	     44.82794277	     56.88542070	    105.61587769	    154.00735091	     -3.23680268	     49.16826004	     57.95771121	    110.22667063
      1.86000000	     -7.07750470	      6.22627112	     -8.81499465	     -0.20362472	      0.99392862	     -0.54342076	     26.83523234	     -4.74614105	     10.37295157	     29.67948450	      0.51800472	    -23.52107845	    -22.12578997	     -7.50001603	     26.56440169	     -1.85620329	     -7.79225808	     28.70006627	      0.50091065	    -29.21621251	    -15.03813817	     -7.50001603	     -6.65305643	     -7.00509022	      6.68060155	    147.24670881	    -13.00507287	     47.23247006	     54.38221190	    107.22814748	    153.47020920	     -3.08722115	     50.57510206	     55.78762801	    112.17510731
      1.87000000	     -6.29173103	      6.30292302	     -8.59942265	     -0.19925931	      1.01737804	     -0.54268655	     22.79203653	     -5.81900214	      9.21988342	     22.62114103	      0.39481339	    -30.96371369	    -19.56779186	     -7.50001311	     22.47506681	     -1.27304051	     -7.63854860	     21.42474797	      0.37393239	    -36.58535167	    -12.71097054	     -7.50001311	     -6.03695921	     -7.16177534	      6.95352902	    147.25810281	    -13.51901212	     51.00090976	     52.77033176	    100.83897029	    152.14022199	     -2.98623610	     51.26604415	     54.74933174	    109.88427131
